<svg width="32" height="32" viewBox="0 0 32 32" fill="none" xmlns="http://www.w3.org/2000/svg">
<path d="M16 2C8.26875 2 2 8.26875 2 16C2 23.7313 8.26875 30 16 30C23.7313 30 30 23.7313 30 16C30 8.26875 23.7313 2 16 2ZM21.5156 20.3031L20.6219 21.5219C20.6024 21.5484 20.5779 21.5708 20.5498 21.5879C20.5217 21.6049 20.4904 21.6162 20.4579 21.6212C20.4254 21.6261 20.3922 21.6246 20.3603 21.6167C20.3284 21.6087 20.2983 21.5946 20.2719 21.575L15.1031 17.8062C15.0709 17.7831 15.0448 17.7526 15.0268 17.7173C15.0089 17.6819 14.9997 17.6428 15 17.6031V9C15 8.8625 15.1125 8.75 15.25 8.75H16.7531C16.8906 8.75 17.0031 8.8625 17.0031 9V16.7344L21.4594 19.9562C21.5719 20.0344 21.5969 20.1906 21.5156 20.3031Z" fill="#FF8DBF"/>
</svg>
