<svg width="72" height="44" viewBox="0 0 72 44" fill="none" xmlns="http://www.w3.org/2000/svg">
<rect x="72" y="44" width="72" height="44" rx="22" transform="rotate(-180 72 44)" fill="#FF8DBF"/>
<path d="M15 21C14.4477 21 14 21.4477 14 22C14 22.5523 14.4477 23 15 23V21ZM55.7071 22.7071C56.0976 22.3166 56.0976 21.6834 55.7071 21.2929L49.3431 14.9289C48.9526 14.5384 48.3195 14.5384 47.9289 14.9289C47.5384 15.3195 47.5384 15.9526 47.9289 16.3431L53.5858 22L47.9289 27.6569C47.5384 28.0474 47.5384 28.6805 47.9289 29.0711C48.3195 29.4616 48.9526 29.4616 49.3431 29.0711L55.7071 22.7071ZM15 23H55V21H15V23Z" fill="#F9FDF9"/>
</svg>
