<svg width="17" height="16" viewBox="0 0 17 16" fill="none" xmlns="http://www.w3.org/2000/svg">
<path d="M14.5329 4.43126C14.3218 3.94632 14.0175 3.50687 13.637 3.13751C13.2562 2.76705 12.8071 2.47265 12.3144 2.27032C11.8034 2.05969 11.2554 1.95187 10.7021 1.95314C9.92582 1.95314 9.16847 2.16407 8.51032 2.56251C8.35287 2.65782 8.20329 2.76251 8.06158 2.87657C7.91987 2.76251 7.77029 2.65782 7.61284 2.56251C6.95469 2.16407 6.19734 1.95314 5.4211 1.95314C4.86214 1.95314 4.3205 2.05939 3.80878 2.27032C3.31438 2.47345 2.86879 2.76564 2.48618 3.13751C2.10514 3.50645 1.80075 3.94601 1.59027 4.43126C1.37141 4.93595 1.25962 5.47189 1.25962 6.02345C1.25962 6.54376 1.36669 7.08595 1.57925 7.63751C1.75717 8.09845 2.01224 8.57657 2.33817 9.05939C2.85462 9.82345 3.56473 10.6203 4.44646 11.4281C5.90763 12.7672 7.35462 13.6922 7.41602 13.7297L7.78919 13.9672C7.95451 14.0719 8.16707 14.0719 8.3324 13.9672L8.70556 13.7297C8.76697 13.6906 10.2124 12.7672 11.6751 11.4281C12.5569 10.6203 13.267 9.82345 13.7834 9.05939C14.1093 8.57657 14.366 8.09845 14.5423 7.63751C14.7549 7.08595 14.862 6.54376 14.862 6.02345C14.8635 5.47189 14.7517 4.93595 14.5329 4.43126Z" fill="#F78BB1"/>
</svg>
