<svg width="72" height="44" viewBox="0 0 72 44" fill="none" xmlns="http://www.w3.org/2000/svg">
<rect width="72" height="44" rx="22" fill="#FF8DBF"/>
<path d="M57 23C57.5523 23 58 22.5523 58 22C58 21.4477 57.5523 21 57 21L57 23ZM16.2929 21.2929C15.9024 21.6834 15.9024 22.3166 16.2929 22.7071L22.6569 29.0711C23.0474 29.4616 23.6805 29.4616 24.0711 29.0711C24.4616 28.6805 24.4616 28.0474 24.0711 27.6569L18.4142 22L24.0711 16.3431C24.4616 15.9526 24.4616 15.3195 24.0711 14.9289C23.6805 14.5384 23.0474 14.5384 22.6569 14.9289L16.2929 21.2929ZM57 21L17 21L17 23L57 23L57 21Z" fill="#F9FDF9"/>
</svg>
